<?xml version="1.0" encoding="UTF-8" standalone="no"?>
<!-- Created with Inkscape (http://www.inkscape.org/) -->

<svg
   width="186mm"
   height="185mm"
   viewBox="0 0 186 185"
   version="1.1"
   id="svg1"
   xml:space="preserve"
   inkscape:version="1.4 (86a8ad7, 2024-10-11)"
   sodipodi:docname="logo.svg"
   inkscape:export-filename="MAIR_LAB.png"
   inkscape:export-xdpi="96"
   inkscape:export-ydpi="96"
   xmlns:inkscape="http://www.inkscape.org/namespaces/inkscape"
   xmlns:sodipodi="http://sodipodi.sourceforge.net/DTD/sodipodi-0.dtd"
   xmlns="http://www.w3.org/2000/svg"
   xmlns:svg="http://www.w3.org/2000/svg"><sodipodi:namedview
     id="namedview1"
     pagecolor="#ffffff"
     bordercolor="#000000"
     borderopacity="0.25"
     inkscape:showpageshadow="2"
     inkscape:pageopacity="0.0"
     inkscape:pagecheckerboard="0"
     inkscape:deskcolor="#d1d1d1"
     inkscape:document-units="mm"
     inkscape:zoom="0.71891838"
     inkscape:cx="464.58682"
     inkscape:cy="402.68827"
     inkscape:window-width="1920"
     inkscape:window-height="1009"
     inkscape:window-x="-8"
     inkscape:window-y="-8"
     inkscape:window-maximized="1"
     inkscape:current-layer="layer1" /><defs
     id="defs1" /><g
     inkscape:label="Layer 1"
     inkscape:groupmode="layer"
     id="layer1"><path
       style="fill:none;fill-opacity:0.859031;stroke:#0c4f7b;stroke-width:3.1;stroke-linecap:round;stroke-linejoin:round;stroke-dasharray:none;stroke-opacity:1"
       d="M 33.733481,156.6025 H 152.79111 c 0,0 19.55018,-18.30205 23.71396,-34.63188 4.16378,-16.32983 7.54685,-33.115069 2.99272,-51.201499 C 174.94365,52.682701 165.83538,39.280531 155.9464,28.740961 146.05742,18.20139 126.27946,7.1413465 108.06292,4.5389825 89.846364,1.9366195 61.870961,3.3679175 40.661699,20.15316 19.45244,36.938401 13.336886,50.210451 7.2213335,70.508891 c -6.1155541,20.29843 -1.040945,41.767919 2.2120087,51.526789 3.2529538,9.75886 10.2793338,18.99725 12.7515798,22.51044 2.472245,3.51319 11.548559,12.05638 11.548559,12.05638 z"
       id="path1"
       inkscape:export-filename="MAIR_LAB_Emblem.png"
       inkscape:export-xdpi="96"
       inkscape:export-ydpi="96" /><path
       style="fill:none;fill-opacity:0.859031;stroke:#0c4f7b;stroke-width:3.1;stroke-linecap:round;stroke-linejoin:round;stroke-dasharray:none;stroke-opacity:1"
       d="m 53.803635,156.64711 c 0,0 -0.84577,-5.59508 4.033663,-9.17333 4.87943,-3.57825 7.221558,-3.1879 12.166047,-3.25296 4.944491,-0.0651 43.979945,0 47.753375,0 3.77343,0 8.45768,0.84577 10.99498,3.90355 2.53731,3.05777 2.69368,4.3378 2.9237,5.76391 0.23002,1.42612 0.27603,2.71422 0.27603,2.71422"
       id="path2" /><path
       style="fill:none;fill-opacity:0.859031;stroke:#0c4f7b;stroke-width:3.1;stroke-linecap:round;stroke-linejoin:round;stroke-dasharray:none;stroke-opacity:1"
       d="m 78.91644,144.02565 v -6.96133"
       id="path3" /><path
       style="fill:none;fill-opacity:0.859031;stroke:#0c4f7b;stroke-width:3.1;stroke-linecap:round;stroke-linejoin:round;stroke-dasharray:none;stroke-opacity:1"
       d="m 107.24743,144.1815 v -7.31459"
       id="path4" /><rect
       style="fill:none;fill-opacity:0.859031;stroke:#0c4f7b;stroke-width:3.1;stroke-linecap:round;stroke-linejoin:round;stroke-dasharray:none;stroke-opacity:1"
       id="rect4"
       width="55.480484"
       height="42.69146"
       x="65.476051"
       y="94.405487"
       ry="9.2674952" /><path
       style="fill:none;fill-opacity:0.859031;stroke:#0c4f7b;stroke-width:3.1;stroke-linecap:round;stroke-linejoin:round;stroke-dasharray:none;stroke-opacity:1"
       d="m 65.384037,107.24052 c 0,0 -3.082247,0 -4.370353,0 -1.288103,0 -2.162175,0.46003 -2.162175,1.79414 0,1.33411 0,11.31691 0,12.46701 0,1.15009 0.73606,1.97816 1.610133,1.97816 0.874069,0 4.922395,0 4.922395,0"
       id="path5" /><path
       style="fill:none;fill-opacity:0.859031;stroke:#0c4f7b;stroke-width:3.1;stroke-linecap:round;stroke-linejoin:round;stroke-dasharray:none;stroke-opacity:1"
       d="m 99.020967,94.328771 v -4.79324 c 0,-1.2881 -0.59015,-2.84529 -2.249545,-2.84529 h -7.587579 c -1.572974,0 -1.97816,2.03724 -1.97816,2.91131 v 4.72722"
       id="path5-7"
       sodipodi:nodetypes="cssssc" /><path
       style="fill:none;fill-opacity:0.859031;stroke:#0c4f7b;stroke-width:3.1;stroke-linecap:round;stroke-linejoin:round;stroke-dasharray:none;stroke-opacity:1"
       d="m 121.04397,107.29443 c 0,0 3.08225,0 4.37036,0 1.2881,0 2.16217,0.46003 2.16217,1.79414 0,1.33411 0,11.31691 0,12.46701 0,1.15009 -0.73606,1.97816 -1.61013,1.97816 -0.87407,0 -4.9224,0 -4.9224,0"
       id="path5-4" /><circle
       style="fill:#0b507c;fill-opacity:1;stroke:#0c4f7b;stroke-width:3.1;stroke-linecap:round;stroke-linejoin:round;stroke-dasharray:none;stroke-opacity:1"
       id="path6"
       cx="81.421227"
       cy="112.24431"
       r="4.8469014" /><circle
       style="fill:#0b507c;fill-opacity:1;stroke:#0c4f7b;stroke-width:3.1;stroke-linecap:round;stroke-linejoin:round;stroke-dasharray:none;stroke-opacity:1"
       id="circle6"
       cx="104.90755"
       cy="112.24431"
       r="4.8469014" /><rect
       style="fill:none;fill-opacity:0.859031;stroke:#0c4f7b;stroke-width:3.1;stroke-linecap:round;stroke-linejoin:round;stroke-dasharray:none;stroke-opacity:1"
       id="rect6"
       width="20.949024"
       height="2.2120087"
       x="82.494698"
       y="126.52477"
       ry="1.1060044" /><path
       style="fill:none;fill-opacity:0.859031;stroke:#0c4f7b;stroke-width:3.1;stroke-linecap:round;stroke-linejoin:round;stroke-dasharray:none;stroke-opacity:1"
       d="m 51.81294,34.140611 c 0,0 -6.993971,2.19524 -10.166821,6.71655 -1.840149,2.62221 -2.71422,3.63429 -2.990241,7.4526 -0.274001,3.79036 0.896397,7.84104 2.341568,10.69981 1.174794,2.32392 2.876695,4.68351 7.181201,6.8276 4.251797,2.11784 12.743029,1.74814 12.743029,1.74814 0,0 4.232344,4.09434 9.430764,5.15242 5.198419,1.05809 8.878718,1.74815 12.236989,0.87408 3.358269,-0.87408 7.314589,-2.85224 7.314589,-2.85224 0,0 4.048334,1.93216 7.728624,2.57621 3.680308,0.64405 7.958648,0.13801 9.844798,-0.69005 1.88616,-0.82807 5.88848,-2.85223 5.88848,-2.85223 0,0 3.45028,1.47212 6.71654,1.74814 3.26627,0.27602 7.45261,-0.55205 9.24675,-1.70214 1.79415,-1.1501 3.95632,-2.66822 3.95632,-2.66822 0,0 5.15242,1.15009 8.46468,0.32203 3.31227,-0.82807 6.71655,-2.25419 9.01673,-4.9224 2.30019,-2.66822 4.37036,-4.83039 4.9224,-9.8448 0.55205,-5.0144 -1.33411,-10.25882 -3.6803,-12.74303 -2.34619,-2.4842 -4.23234,-3.68029 -5.70446,-4.27834 -1.47212,-0.59805 -3.91031,-1.47212 -3.91031,-1.47212 0,0 -0.18402,-2.4842 -1.70214,-5.33643 -1.51812,-2.85223 -4.27835,-5.52045 -6.94656,-7.13058 -2.66822,-1.610127 -6.30251,-2.806223 -8.78671,-2.990239 -2.4842,-0.184015 -7.54461,0.460039 -7.54461,0.460039 0,0 -2.64442,-3.48105 -6.02649,-6.072491 -2.87033,-2.199328 -6.8384,-4.0662245 -10.58086,-4.5543675 -4.936358,-0.643867 -11.202841,0.34892 -14.767193,2.3461895 -3.572505,2.001839 -3.680299,2.300184 -5.244423,3.772304 -1.564126,1.472118 -3.772304,5.060408 -3.772304,5.060408 0,0 -7.130577,-1.380112 -10.856878,-0.736058 -3.726302,0.644052 -5.428441,1.518121 -7.958643,4.048325 -2.530205,2.5302 -4.462362,5.06041 -5.106413,6.99256 -0.644052,1.93216 -1.288106,4.04833 -1.288106,4.04833 z"
       id="path7"
       sodipodi:nodetypes="csssscsscsscsscssssscssscsssscsssc" /><path
       style="fill:none;fill-opacity:0.859031;stroke:#0c4f7b;stroke-width:3.1;stroke-linecap:round;stroke-linejoin:round;stroke-dasharray:none;stroke-opacity:1"
       d="m 62.026906,38.857021 c 0,0 0,-6.44085 3.968605,-9.23839 3.968601,-2.79754 8.587798,-2.40719 10.409451,-0.91083 1.821654,1.49636 4.033663,2.79754 4.424019,5.26978 0.390353,2.47225 1.691534,4.09873 0.130117,7.35168 -1.561418,3.25295 -4.87943,6.0505 -5.7252,7.87215 -0.845767,1.82165 -1.95177,4.68425 -3.252954,5.7252 -1.301181,1.04094 -3.383071,1.49636 -4.944489,-1.17106 -1.561417,-2.66743 -2.14695,-4.48908 -1.236122,-6.76615 0.910825,-2.27707 3.643307,-2.79754 4.554135,-3.77343 0.910828,-0.97588 1.36624,-1.36624 0.780709,-2.40718 -0.585531,-1.04095 -3.513191,-0.91083 -3.838485,-2.34213 -0.325295,-1.4313 0.455414,-2.99272 2.342126,-4.2939 1.886714,-1.30118 4.006038,-1.49636 5.016765,-0.0421 0.930452,1.3388 1.619262,2.18901 1.489143,3.81549 -0.130117,1.62648 -0.260236,2.5373 -0.260236,2.5373"
       id="path8"
       sodipodi:nodetypes="cssssssssssssssc" /><path
       style="fill:none;fill-opacity:0.859031;stroke:#0c4f7b;stroke-width:3.1;stroke-linecap:round;stroke-linejoin:round;stroke-dasharray:none;stroke-opacity:1"
       d="m 82.390398,58.049441 c 0,0 4.293899,-8.32756 12.751574,-8.52274 8.457688,-0.19517 14.833478,8.00227 14.833478,8.00227 0,0 -4.16378,7.80709 -13.272058,8.13239 -9.10827,0.32529 -14.312994,-7.61192 -14.312994,-7.61192 z"
       id="path9" /><circle
       style="fill:none;fill-opacity:0.859031;stroke:#0c4f7b;stroke-width:3.1;stroke-linecap:round;stroke-linejoin:round;stroke-dasharray:none;stroke-opacity:1"
       id="path10"
       cx="96.150398"
       cy="57.496445"
       r="5.4974923" /><rect
       style="fill:none;fill-opacity:0.859031;stroke:#0c4f7b;stroke-width:3.1;stroke-linecap:round;stroke-linejoin:round;stroke-dasharray:none;stroke-opacity:1"
       id="rect10"
       width="16.561338"
       height="21.161711"
       x="113.42277"
       y="28.520502"
       ry="1.1060044" /><path
       style="fill:none;fill-opacity:0.859031;stroke:#0c4f7b;stroke-width:3.1;stroke-linecap:round;stroke-linejoin:round;stroke-dasharray:none;stroke-opacity:1"
       d="m 117.91267,36.092001 h 7.28661"
       id="path11" /><path
       style="fill:none;fill-opacity:0.859031;stroke:#0c4f7b;stroke-width:3.1;stroke-linecap:round;stroke-linejoin:round;stroke-dasharray:none;stroke-opacity:1"
       d="m 117.91267,42.207561 h 7.28661"
       id="path12" /><ellipse
       style="fill:none;fill-opacity:0.859031;stroke:#0c4f7b;stroke-width:3.09999;stroke-linecap:round;stroke-linejoin:round;stroke-dasharray:none;stroke-opacity:1"
       id="path13"
       cx="117.84634"
       cy="79.041199"
       rx="4.9444904"
       ry="3.7734268" /><ellipse
       style="fill:none;fill-opacity:0.859031;stroke:#0c4f7b;stroke-width:3.09999;stroke-linecap:round;stroke-linejoin:round;stroke-dasharray:none;stroke-opacity:1"
       id="ellipse13"
       cx="109.21368"
       cy="86.818069"
       rx="2.7823157"
       ry="2.5313263" /><text
       xml:space="preserve"
       style="font-style:normal;font-variant:normal;font-weight:normal;font-stretch:normal;font-size:10.5833px;line-height:1;font-family:'Sans Serif Collection';-inkscape-font-specification:'Sans Serif Collection, Normal';font-variant-ligatures:normal;font-variant-caps:normal;font-variant-numeric:normal;font-variant-east-asian:normal;text-align:center;writing-mode:lr-tb;direction:ltr;text-anchor:middle;fill:#0c507d;fill-opacity:1;stroke:none;stroke-width:0.5;stroke-linecap:round;stroke-linejoin:round;stroke-dasharray:none"
       x="93.572624"
       y="181.68701"
       id="text13"><tspan
         sodipodi:role="line"
         id="tspan13"
         style="font-style:normal;font-variant:normal;font-weight:bold;font-stretch:normal;font-size:23.6361px;font-family:Sans;-inkscape-font-specification:'Sans, Bold';font-variant-ligatures:normal;font-variant-caps:normal;font-variant-numeric:normal;font-variant-east-asian:normal;fill:#0c507d;fill-opacity:1;stroke:none;stroke-width:0.5;stroke-dasharray:none;stroke-opacity:1"
         x="93.572624"
         y="181.68701">MAIR Lab</tspan></text></g></svg>
